<svg width="1024" height="1024" viewBox="0 0 1024 1024" fill="none" xmlns="http://www.w3.org/2000/svg">
<rect width="1024" height="1024" fill="#8B0E04"/>
<path d="M448.5 445.5L453.939 357H589L696 563.5L767 357H899.5L902.5 426H839.5L845.5 605L909.5 610L911.5 658L738.5 670.5V605H801L777.5 450.5L699.5 638.5H665.5L561.5 446.5L551 610L613.5 614V659L448.5 670L451.5 603L511 607.5L505 440.5L448.5 445.5Z" fill="white"/>
<path d="M112 421V354L297.5 362V421H237.5L223 596.5L376 600L386 526.5H433L408 653.5L114 663.5V595.5L174.5 596.5L168.5 421H112Z" fill="white"/>
</svg>
